<mxfile host="app.diagrams.net" modified="2024-03-03T08:49:49.376Z" agent="Mozilla/5.0 (Windows NT 10.0; Win64; x64) AppleWebKit/537.36 (KHTML, like Gecko) Chrome/122.0.0.0 Safari/537.36" etag="LMAqOROOepCacd7vaU-O" version="24.0.1" type="google">
  <diagram name="Halaman-1" id="aHFhfCNAKJlPP7mqvf5k">
    <mxGraphModel grid="1" page="1" gridSize="10" guides="1" tooltips="1" connect="1" arrows="1" fold="1" pageScale="1" pageWidth="827" pageHeight="1169" math="0" shadow="0">
      <root>
        <mxCell id="0" />
        <mxCell id="1" parent="0" />
        <object label="Mulai" id="wZ3fNfSW4JHdVWYkCGa7-1">
          <mxCell style="ellipse;whiteSpace=wrap;html=1;fillColor=#FF66FF;" vertex="1" parent="1">
            <mxGeometry x="10" y="10" width="120" height="80" as="geometry" />
          </mxCell>
        </object>
        <mxCell id="wZ3fNfSW4JHdVWYkCGa7-2" value="" style="endArrow=open;endFill=1;endSize=12;html=1;rounded=0;entryX=0;entryY=0.5;entryDx=0;entryDy=0;" edge="1" parent="1">
          <mxGeometry width="160" relative="1" as="geometry">
            <mxPoint x="130" y="49.5" as="sourcePoint" />
            <mxPoint x="200" y="50" as="targetPoint" />
          </mxGeometry>
        </mxCell>
        <mxCell id="wZ3fNfSW4JHdVWYkCGa7-3" value="POWER ON&lt;div&gt;POST (POWER ON SELF TEST)&lt;/div&gt;" style="rounded=0;whiteSpace=wrap;html=1;fillColor=#FF66FF;" vertex="1" parent="1">
          <mxGeometry x="200" y="30" width="120" height="60" as="geometry" />
        </mxCell>
        <mxCell id="wZ3fNfSW4JHdVWYkCGa7-8" value="" style="endArrow=open;endFill=1;endSize=12;html=1;rounded=0;" edge="1" parent="1">
          <mxGeometry width="160" relative="1" as="geometry">
            <mxPoint x="259.5" y="90" as="sourcePoint" />
            <mxPoint x="259.5" y="150" as="targetPoint" />
            <Array as="points" />
          </mxGeometry>
        </mxCell>
        <mxCell id="wZ3fNfSW4JHdVWYkCGa7-9" value="Periksa semua&lt;div&gt;perangkat keras&lt;/div&gt;" style="shape=parallelogram;perimeter=parallelogramPerimeter;whiteSpace=wrap;html=1;fixedSize=1;fillColor=#FF66FF;" vertex="1" parent="1">
          <mxGeometry x="200" y="150" width="120" height="60" as="geometry" />
        </mxCell>
        <mxCell id="wZ3fNfSW4JHdVWYkCGa7-10" value="" style="endArrow=open;endFill=1;endSize=12;html=1;rounded=0;" edge="1" parent="1">
          <mxGeometry width="160" relative="1" as="geometry">
            <mxPoint x="259.5" y="210" as="sourcePoint" />
            <mxPoint x="259.5" y="260" as="targetPoint" />
            <Array as="points">
              <mxPoint x="259.5" y="230" />
            </Array>
          </mxGeometry>
        </mxCell>
        <mxCell id="wZ3fNfSW4JHdVWYkCGa7-11" value="Cari perangkat boot" style="rhombus;whiteSpace=wrap;html=1;fillColor=#FF66FF;" vertex="1" parent="1">
          <mxGeometry x="200" y="260" width="120" height="100" as="geometry" />
        </mxCell>
        <mxCell id="wZ3fNfSW4JHdVWYkCGa7-12" value="" style="endArrow=open;endFill=1;endSize=12;html=1;rounded=0;" edge="1" parent="1">
          <mxGeometry width="160" relative="1" as="geometry">
            <mxPoint x="259.5" y="360" as="sourcePoint" />
            <mxPoint x="260" y="400" as="targetPoint" />
            <Array as="points">
              <mxPoint x="259.5" y="380" />
            </Array>
          </mxGeometry>
        </mxCell>
        <mxCell id="wZ3fNfSW4JHdVWYkCGa7-13" value="Inisialisasi perangkat keras dan perangkat lunak" style="rounded=0;whiteSpace=wrap;html=1;fillColor=#FF66FF;" vertex="1" parent="1">
          <mxGeometry x="200" y="400" width="120" height="60" as="geometry" />
        </mxCell>
        <mxCell id="wZ3fNfSW4JHdVWYkCGa7-14" value="" style="endArrow=open;endFill=1;endSize=12;html=1;rounded=0;" edge="1" parent="1">
          <mxGeometry width="160" relative="1" as="geometry">
            <mxPoint x="259.5" y="460" as="sourcePoint" />
            <mxPoint x="260" y="520" as="targetPoint" />
            <Array as="points" />
          </mxGeometry>
        </mxCell>
        <mxCell id="wZ3fNfSW4JHdVWYkCGa7-15" value="tampilkan prompt login" style="rhombus;whiteSpace=wrap;html=1;fillColor=#FF66FF;" vertex="1" parent="1">
          <mxGeometry x="200" y="520" width="120" height="130" as="geometry" />
        </mxCell>
        <mxCell id="wZ3fNfSW4JHdVWYkCGa7-16" value="" style="endArrow=open;endFill=1;endSize=12;html=1;rounded=0;" edge="1" parent="1">
          <mxGeometry width="160" relative="1" as="geometry">
            <mxPoint x="259.5" y="650" as="sourcePoint" />
            <mxPoint x="260" y="720" as="targetPoint" />
            <Array as="points" />
          </mxGeometry>
        </mxCell>
        <mxCell id="wZ3fNfSW4JHdVWYkCGa7-17" value="Tampilkan Deskop" style="shape=parallelogram;perimeter=parallelogramPerimeter;whiteSpace=wrap;html=1;fixedSize=1;fillColor=#FF66FF;" vertex="1" parent="1">
          <mxGeometry x="200" y="720" width="120" height="60" as="geometry" />
        </mxCell>
        <mxCell id="wZ3fNfSW4JHdVWYkCGa7-18" value="Pengguna dapat menjalankan program, membuka file dan mengelolah komputer" style="rounded=0;whiteSpace=wrap;html=1;fillColor=#FF66FF;" vertex="1" parent="1">
          <mxGeometry x="200" y="850" width="120" height="110" as="geometry" />
        </mxCell>
        <mxCell id="wZ3fNfSW4JHdVWYkCGa7-26" value="" style="endArrow=open;endFill=1;endSize=12;html=1;rounded=0;" edge="1" parent="1">
          <mxGeometry width="160" relative="1" as="geometry">
            <mxPoint x="324" y="920" as="sourcePoint" />
            <mxPoint x="380" y="920" as="targetPoint" />
            <Array as="points" />
          </mxGeometry>
        </mxCell>
        <mxCell id="wZ3fNfSW4JHdVWYkCGa7-27" value="Selesai" style="ellipse;whiteSpace=wrap;html=1;fillColor=#FF66FF;" vertex="1" parent="1">
          <mxGeometry x="390" y="900" width="120" height="80" as="geometry" />
        </mxCell>
        <mxCell id="wZ3fNfSW4JHdVWYkCGa7-28" value="" style="endArrow=open;endFill=1;endSize=12;html=1;rounded=0;exitX=1;exitY=0.5;exitDx=0;exitDy=0;" edge="1" parent="1">
          <mxGeometry width="160" relative="1" as="geometry">
            <mxPoint x="320" y="585" as="sourcePoint" />
            <mxPoint x="450" y="586" as="targetPoint" />
          </mxGeometry>
        </mxCell>
        <mxCell id="wZ3fNfSW4JHdVWYkCGa7-29" value="" style="endArrow=open;endFill=1;endSize=12;html=1;rounded=0;entryX=0.244;entryY=0;entryDx=0;entryDy=0;entryPerimeter=0;" edge="1" parent="1">
          <mxGeometry width="160" relative="1" as="geometry">
            <mxPoint x="450" y="310" as="sourcePoint" />
            <mxPoint x="450" y="889.67" as="targetPoint" />
            <Array as="points" />
          </mxGeometry>
        </mxCell>
        <mxCell id="wZ3fNfSW4JHdVWYkCGa7-30" value="" style="line;strokeWidth=1;rotatable=0;dashed=0;labelPosition=right;align=left;verticalAlign=middle;spacingTop=0;spacingLeft=6;points=[];portConstraint=eastwest;" vertex="1" parent="1">
          <mxGeometry x="320" y="305" width="130" height="10" as="geometry" />
        </mxCell>
        <mxCell id="wZ3fNfSW4JHdVWYkCGa7-38" value="" style="endArrow=open;endFill=1;endSize=12;html=1;rounded=0;" edge="1" parent="1">
          <mxGeometry width="160" relative="1" as="geometry">
            <mxPoint x="259.5" y="780" as="sourcePoint" />
            <mxPoint x="260" y="850" as="targetPoint" />
            <Array as="points" />
          </mxGeometry>
        </mxCell>
        <mxCell id="wZ3fNfSW4JHdVWYkCGa7-40" value="&lt;font size=&quot;3&quot;&gt;&lt;b&gt;&lt;i&gt;BOOT PROCESS BY SELMA HUMAYRA MAJAH 3123521021&lt;/i&gt;&lt;/b&gt;&lt;/font&gt;" style="text;html=1;align=center;verticalAlign=middle;resizable=0;points=[];autosize=1;strokeColor=none;fillColor=none;" vertex="1" parent="1">
          <mxGeometry y="-30" width="480" height="30" as="geometry" />
        </mxCell>
        <mxCell id="wZ3fNfSW4JHdVWYkCGa7-41" value="&lt;span style=&quot;font-size: 18px;&quot;&gt;&lt;b&gt;BOOTLOADER&lt;/b&gt;&lt;/span&gt;" style="text;html=1;align=center;verticalAlign=middle;resizable=0;points=[];autosize=1;strokeColor=none;fillColor=none;" vertex="1" parent="1">
          <mxGeometry x="30" y="290" width="150" height="40" as="geometry" />
        </mxCell>
        <mxCell id="wZ3fNfSW4JHdVWYkCGa7-44" value="&lt;span style=&quot;font-size: 18px;&quot;&gt;&lt;b&gt;SISTEM&lt;/b&gt;&lt;/span&gt;&lt;div&gt;&lt;span style=&quot;font-size: 18px;&quot;&gt;&lt;b&gt;OPERASI&lt;/b&gt;&lt;/span&gt;&lt;/div&gt;" style="text;html=1;align=center;verticalAlign=middle;resizable=0;points=[];autosize=1;strokeColor=none;fillColor=none;" vertex="1" parent="1">
          <mxGeometry x="80" y="403" width="100" height="60" as="geometry" />
        </mxCell>
        <mxCell id="wZ3fNfSW4JHdVWYkCGa7-45" value="&lt;font style=&quot;font-size: 18px;&quot;&gt;&lt;b&gt;DESKTOP&lt;/b&gt;&lt;/font&gt;" style="text;html=1;align=center;verticalAlign=middle;resizable=0;points=[];autosize=1;strokeColor=none;fillColor=none;" vertex="1" parent="1">
          <mxGeometry x="55" y="733" width="110" height="40" as="geometry" />
        </mxCell>
        <mxCell id="wZ3fNfSW4JHdVWYkCGa7-46" value="&lt;i&gt;YA&lt;/i&gt;" style="text;html=1;align=center;verticalAlign=middle;resizable=0;points=[];autosize=1;strokeColor=none;fillColor=none;" vertex="1" parent="1">
          <mxGeometry x="260" y="688" width="40" height="30" as="geometry" />
        </mxCell>
        <mxCell id="wZ3fNfSW4JHdVWYkCGa7-47" value="&lt;i&gt;TIDAK&lt;/i&gt;" style="text;html=1;align=center;verticalAlign=middle;resizable=0;points=[];autosize=1;strokeColor=none;fillColor=none;" vertex="1" parent="1">
          <mxGeometry x="300" y="548" width="60" height="30" as="geometry" />
        </mxCell>
        <mxCell id="wZ3fNfSW4JHdVWYkCGa7-48" value="YA" style="text;html=1;align=center;verticalAlign=middle;resizable=0;points=[];autosize=1;strokeColor=none;fillColor=none;" vertex="1" parent="1">
          <mxGeometry x="270" y="368" width="40" height="30" as="geometry" />
        </mxCell>
        <mxCell id="wZ3fNfSW4JHdVWYkCGa7-49" value="TIDAK" style="text;html=1;align=center;verticalAlign=middle;resizable=0;points=[];autosize=1;strokeColor=none;fillColor=none;" vertex="1" parent="1">
          <mxGeometry x="300" y="278" width="60" height="30" as="geometry" />
        </mxCell>
      </root>
    </mxGraphModel>
  </diagram>
</mxfile>
